<svg xmlns="http://www.w3.org/2000/svg" viewBox="0 0 209.16 67.27"><g id="Layer_2" data-name="Layer 2"><g id="Layer_1-2" data-name="Layer 1"><path d="M14.4,13.34c0-.38.24-.58.72-.58h8.21c.19,0,.57-.31,1.15-.93A10.62,10.62,0,0,0,26,9.74a6.2,6.2,0,0,0,.79-2.09q.15-.93-.93-.93c-.39,0-1.25,0-2.59.1S20.5,7,19,7.11s-2.84.25-4,.4a4.76,4.76,0,0,0-2,.43,1.79,1.79,0,0,0-.32,1.19c0,.45.07.92.14,1.4A14.68,14.68,0,0,0,13.14,12a5.39,5.39,0,0,1,.18,1.3,11.17,11.17,0,0,1-1.15,4.64,19.9,19.9,0,0,1-3,4.61,17.75,17.75,0,0,1-4.1,3.53,8.59,8.59,0,0,1-4.5,1.4c-.34,0-.53-.07-.58-.21l.07-.15A41.49,41.49,0,0,0,2.48,22.7a28.79,28.79,0,0,0,1.41-3.6,16.87,16.87,0,0,0,.65-3.17c.09-1,.16-2.07.21-3.2s.08-2.38.11-3.75S5,6,5.11,4.27A.77.77,0,0,1,5.18,4a.22.22,0,0,1,.22-.14,7.25,7.25,0,0,1,2.05.28c.65.2,1.31.42,2,.69s1.33.49,2,.68a7.25,7.25,0,0,0,2.05.29,5.38,5.38,0,0,0,2.78-1c1-.65,2.06-1.34,3.09-2.09s2-1.4,3-2A3.52,3.52,0,0,1,24.55,0c.15,0,.53.31,1.15.94S27,2.28,27.65,3l1.83,2.13c.56.65.83,1,.83,1.19a.47.47,0,0,1-.25.43,2.67,2.67,0,0,1-.61.25l-.69.22a.75.75,0,0,0-.46.39,3.48,3.48,0,0,0,1,1.3L31,10.42A16.19,16.19,0,0,1,32.58,12a2.3,2.3,0,0,1,.68,1.44c0,.1-.06.17-.18.22a.81.81,0,0,1-.32.07H26.5a.64.64,0,0,0-.72.72c0,.48,0,1.15.07,2s.08,1.75.11,2.66a21.72,21.72,0,0,1-.08,2.59,3.66,3.66,0,0,1-.46,1.73,2.05,2.05,0,0,1-1.19.83,8.39,8.39,0,0,1-1.84.32c-.67.05-1.32.07-1.94.07H18.94a2.55,2.55,0,0,1-.72-.1c-.25-.08-.36-.28-.36-.62,0-1.05,0-2.11,0-3.16s0-2.12,0-3.17V15.93a8.88,8.88,0,0,0-.15-1.65,7.16,7.16,0,0,0-.86-.29c-.34-.1-.67-.18-1-.25s-.65-.14-.93-.18A1.1,1.1,0,0,1,14.4,13.34ZM3.17,67.12a.63.63,0,0,1,.39-.43,3.72,3.72,0,0,0,.54-.21c1.16-.53,2.28-1.11,3.39-1.73s2.21-1.27,3.31-2c2.3-1.29,4.6-2.62,6.88-4s4.57-2.73,6.87-4.07a12.32,12.32,0,0,1,1.62,1c.84.57,1.72,1.2,2.63,1.87s1.73,1.31,2.45,1.91,1.08.95,1.08,1-.16.39-.47.43a4.28,4.28,0,0,0-.68.15,47.94,47.94,0,0,0-4.9.93q-2.8.72-5.62,1.62t-5.61,1.7c-1.87.52-3.77,1-5.69,1.33a31.54,31.54,0,0,1-5.83.54Q3.23,67.27,3.17,67.12ZM50.69,25.29a2.55,2.55,0,0,0,1,1.05c.57.4,1.19.81,1.87,1.22s1.27.82,1.8,1.22.79.76.79,1a.74.74,0,0,1-.29.54,7.35,7.35,0,0,1-.65.5,4.92,4.92,0,0,0-.64.54.87.87,0,0,0-.29.65V53.3c0,.39-.37.7-1.12.94a15.69,15.69,0,0,1-2.52.57c-.93.15-1.85.25-2.73.33s-1.48.1-1.77.1a.69.69,0,0,1-.65-.43,8.15,8.15,0,0,1-.39-1,8.5,8.5,0,0,0-.4-1,.74.74,0,0,0-.72-.47l-22.53.51a.47.47,0,0,0-.44.29,7.26,7.26,0,0,0-.28.7c-.1.27-.2.53-.29.8a1.31,1.31,0,0,1-.43.62,5.15,5.15,0,0,1-1.62,1,14,14,0,0,1-2,.58,18.07,18.07,0,0,1-2,.33,18.25,18.25,0,0,1-1.87.11.64.64,0,0,1-.72-.72l-.43-31.61c0-.28.16-.43.5-.43A5.79,5.79,0,0,1,14,25c.81.34,1.65.72,2.52,1.16S18.18,27,19,27.34a5,5,0,0,0,2,.54l22.11.58a1.56,1.56,0,0,0,.82-.43c.36-.29.74-.62,1.12-1s.74-.72,1.08-1.09l.72-.76a15.47,15.47,0,0,0,.11-1.8q0-1.45,0-3.15c0-1.14,0-2.23,0-3.29s0-1.81,0-2.25a.64.64,0,0,0-.72-.72c-.38,0-1,0-1.73-.07a2,2,0,0,0-1.58.36,4.15,4.15,0,0,0-1,1.26A10.89,10.89,0,0,1,41,16.87c-.72,1-1.46,1.92-2.23,2.88a24.72,24.72,0,0,1-2.52,2.7,13.78,13.78,0,0,1-2.95,2.09,9.12,9.12,0,0,1-3.53,1h-.29a.41.41,0,0,1-.29-.15,19,19,0,0,0,4.21-5.94,16.93,16.93,0,0,0,1.48-7.09,27.29,27.29,0,0,0-.32-4.14,26,26,0,0,1-.33-4.14c0-.43.24-.65.72-.65a5.66,5.66,0,0,1,1.8.29c.58.19,1.15.41,1.73.65s1.15.46,1.73.65a5.66,5.66,0,0,0,1.8.29,10.12,10.12,0,0,0,3.67-.8c1.34-.52,2.63-1.1,3.85-1.72S51.85,1.56,52.74,1A5.61,5.61,0,0,1,54.36.24q.28,0,1.26.9c.65.6,1.33,1.28,2.05,2.05S59,4.68,59.58,5.35a3.46,3.46,0,0,1,.83,1.29.83.83,0,0,1-.33.69,1,1,0,0,0-.32.83,1.91,1.91,0,0,0,.79,1.51,13.54,13.54,0,0,0,1.73,1.19c.62.36,1.2.73,1.73,1.11a1.62,1.62,0,0,1,.79,1.3c0,.24-.13.38-.4.43a3.32,3.32,0,0,1-.61.07c-.29,0-.9,0-1.83-.11s-1.9-.1-2.88-.1a20.57,20.57,0,0,0-2.63.14c-.77.1-1.15.34-1.15.72v8.21c0,.14-.21.31-.62.5s-.86.39-1.36.58l-1.48.57a3.22,3.22,0,0,0-.94.51Zm-29,4A.64.64,0,0,0,21,30V50.71a.64.64,0,0,0,.72.72H44.21a.64.64,0,0,0,.72-.72V30a.64.64,0,0,0-.72-.72Zm1.51,6.77H42.7a1.17,1.17,0,0,1,.39.11.34.34,0,0,1,.25.32A4.92,4.92,0,0,1,42,36.6l-3.24,0c-1.32,0-2.77,0-4.35,0s-3.14,0-4.65,0l-4.17,0H22.75a.27.27,0,0,1-.21-.08l.14-.21Zm0,7.63H42.7a1.17,1.17,0,0,1,.39.11.34.34,0,0,1,.25.33,5.86,5.86,0,0,1-1.33.07l-3.24,0c-1.32,0-2.77,0-4.35,0s-3.14,0-4.65,0l-4.17,0H22.75a.31.31,0,0,1-.21-.07l.14-.22ZM37,57.33a6.41,6.41,0,0,1,2-.18c.89,0,1.59,0,2.12,0s1.66,0,3,.07,2.72.16,4.25.32,3.11.4,4.72.68a26.41,26.41,0,0,1,4.35,1.14,11.06,11.06,0,0,1,3.21,1.76,3.1,3.1,0,0,1,1.26,2.46,2.63,2.63,0,0,1-.58,1.72,4.31,4.31,0,0,1-1.4,1.14,6.27,6.27,0,0,1-1.8.61,10.13,10.13,0,0,1-1.84.18,10.46,10.46,0,0,1-4-.86,33.64,33.64,0,0,1-4.17-2.07c-1.4-.81-2.74-1.66-4-2.54s-2.44-1.66-3.45-2.32a5.77,5.77,0,0,0-.83-.5L38.7,58.4c-.36-.19-.7-.38-1-.57A3.41,3.41,0,0,1,37,57.33Zm5.76-45.07c.09.1.24.24.43.43a.83.83,0,0,0,.58.29l10.29-.43a1.77,1.77,0,0,0,1.08-.65,14.48,14.48,0,0,0,1.3-1.51,11.69,11.69,0,0,0,1.08-1.73A3.29,3.29,0,0,0,58,7.36c0-.28-.11-.45-.32-.5A3.11,3.11,0,0,0,57,6.79c-.43,0-1.39,0-2.88.11s-3.06.15-4.71.25-3.15.23-4.47.39A5.54,5.54,0,0,0,42.77,8a1.6,1.6,0,0,0-.11.25,2.49,2.49,0,0,1-.11.26v3.24Z" style="fill:#231f20"/><path d="M83,6.79a.64.64,0,0,0-.73.72V25.87q0,9.14-.14,18.36C82,46.82,82,49.4,82,52s0,5.15,0,7.74c0,.77,0,1.56.1,2.37a6.51,6.51,0,0,1-.17,2.31,2.39,2.39,0,0,1-1,1.55,7.45,7.45,0,0,1-1.89.86,9.62,9.62,0,0,1-2.18.4c-.74,0-1.37.07-1.89.07a4.74,4.74,0,0,1-.79-.07c-.23,0-.35-.27-.35-.65q0-16.2-.22-32.22T73.3,2.11c0-.39.13-.59.39-.61a1.62,1.62,0,0,1,.76.1,10.15,10.15,0,0,1,1.94.83l2.34,1.26c.79.43,1.54.82,2.23,1.15a4.13,4.13,0,0,0,1.55.51h8.71c.24,0,.57-.22,1-.65s.84-.9,1.29-1.4.9-1,1.33-1.41.77-.65,1-.65A9.89,9.89,0,0,1,97,2c.72.52,1.5,1.11,2.34,1.76s1.61,1.26,2.31,1.84l1.19,1c.19.34.21.59.07.76a2.39,2.39,0,0,1-.61.47,7,7,0,0,0-.8.5.93.93,0,0,0-.39.79V27a1.45,1.45,0,0,1-.94,1.33A8.94,8.94,0,0,1,98,29a15.45,15.45,0,0,1-2.52.29l-1.84,0c-.24,0-.4-.06-.47-.18l-.25-.46A15,15,0,0,1,92.56,26c-.08-1.25-.11-2.58-.11-4v-7.1a26.85,26.85,0,0,1,.25-3.7,11.3,11.3,0,0,0-.11-3.71c-.09-.48-.34-.72-.72-.72Zm.71,8.06c0-.09.12-.19.36-.29a1.79,1.79,0,0,1,.51-.14h5.83a1.75,1.75,0,0,1,.5.14c.24.1.36.2.36.29A4.24,4.24,0,0,1,90,15c-.77,0-1.61,0-2.52,0s-1.76,0-2.56,0A4.61,4.61,0,0,1,83.66,14.85Zm.44,8.71h6.69l.22.22-.22.29H84.1l-.29-.29ZM108.5,35.8c.15-.14.42-.43.83-.86s.84-.88,1.3-1.33.87-.87,1.26-1.23.65-.54.79-.54a5.09,5.09,0,0,1,1.37.83c.76.55,1.58,1.18,2.45,1.87s1.64,1.37,2.34,2,1,1,1,1.19a.59.59,0,0,1-.29.43c-.19.14-.39.31-.61.5a7.92,7.92,0,0,0-.58.58.91.91,0,0,0-.25.58V54.31c0,.29-.35.55-1,.79a17.22,17.22,0,0,1-2.41.61c-.92.17-1.78.3-2.6.4a15.49,15.49,0,0,1-1.65.14c-.48,0-.72-.21-.72-.65V38.25l-.22-.5-.5-.51L108.5,37h-10a.64.64,0,0,0-.72.72V50.42c0,.58.52.88,1.58.9a28.09,28.09,0,0,0,3.46-.14c1.24-.12,2.39-.2,3.45-.22s1.59.21,1.59.68a.45.45,0,0,1-.51.51H98.21c-.15,0-.29.18-.43.54s-.29.77-.44,1.22-.3.91-.46,1.37a2,2,0,0,1-.54.9A4.91,4.91,0,0,1,95,57a8.24,8.24,0,0,1-1.69.47c-.61.09-1.2.16-1.8.21s-1.15.07-1.62.07a.64.64,0,0,1-.72-.72V33.36a.82.82,0,0,1,.1-.36.35.35,0,0,1,.33-.22,5.52,5.52,0,0,1,2.16.5c.77.34,1.52.71,2.27,1.12s1.48.78,2.23,1.12a5.23,5.23,0,0,0,2.12.5H108ZM136.66,7a2.17,2.17,0,0,1-.47.69,7.23,7.23,0,0,1-.72.61,5.26,5.26,0,0,0-.69.58.81.81,0,0,0-.28.57V61a3.68,3.68,0,0,1-1.12,2.6,10.36,10.36,0,0,1-2.66,1.94,14.45,14.45,0,0,1-3.28,1.19,13.51,13.51,0,0,1-2.88.39.34.34,0,0,1-.32-.25l-.18-.39c-.25-.82-.45-1.5-.62-2.06s-.33-1.05-.5-1.51a12.39,12.39,0,0,0-.68-1.47c-.29-.53-.68-1.16-1.16-1.88a1,1,0,0,1-.21-.57c0-.29.24-.44.72-.47s1-.07,1.62-.14a4.31,4.31,0,0,0,1.62-.54,1.78,1.78,0,0,0,.72-1.66V7.51a.64.64,0,0,0-.72-.72h-9.07a.63.63,0,0,0-.72.72V22.63q0,.57,1.11.72a19.3,19.3,0,0,0,2.52.14c.94,0,1.85,0,2.74-.11s1.47-.1,1.76-.1a2.89,2.89,0,0,1,.58.07.4.4,0,0,1,.36.43c0,.34-.36.54-1.08.61a19,19,0,0,1-2.45.07c-.91,0-1.8-.07-2.66-.14a8.93,8.93,0,0,0-1.66,0,2.71,2.71,0,0,0-1.15.72c-.48.44-1,.9-1.66,1.41a12.67,12.67,0,0,1-2.12,1.37,5.62,5.62,0,0,1-2.56.61H107.6q-.75,0-.75-.72,0-6.33-.22-12.53t-.21-12.53c0-.43.24-.65.72-.65a4.91,4.91,0,0,1,1.9.54c.8.36,1.6.75,2.42,1.16s1.6.79,2.37,1.15a4.67,4.67,0,0,0,1.8.54h8.79a.33.33,0,0,0,.21-.07.14.14,0,0,0,.11,0,.16.16,0,0,1,.11,0A9,9,0,0,0,126.68,3,9.75,9.75,0,0,1,128.52.88.62.62,0,0,1,129,.74a7.73,7.73,0,0,1,1.62,1.08l2.05,1.69,2.13,1.8a12.44,12.44,0,0,0,1.76,1.33Zm-19.88,7.85c0-.09.12-.19.36-.29a1.79,1.79,0,0,1,.51-.14H123a1.84,1.84,0,0,1,.5.14c.24.1.36.2.36.29a3.89,3.89,0,0,1-1.15.11c-.72,0-1.51,0-2.38,0s-1.65,0-2.37,0A4,4,0,0,1,116.78,14.85Z" style="fill:#231f20"/><path d="M143.06,41.42c.39,0,1,0,1.88,0s1.82,0,2.88,0,2.17,0,3.34,0,2.26,0,3.24,0l2.6.07c.74,0,1.21.06,1.4.09l-.79.36H143.06l-.21-.22ZM159.62,8.66c0,.1-.2.21-.61.32a4.22,4.22,0,0,1-.75.18h-14.4c-.39,0-.58-.15-.58-.46s.19-.47.58-.47h14.4a2.88,2.88,0,0,1,.75.14A1.55,1.55,0,0,1,159.62,8.66ZM144.79,56.9l.22-.36a93.14,93.14,0,0,0,7.77-6.16,58.34,58.34,0,0,0,6.92-7.16,11,11,0,0,0,.64-1c.29-.51.57-1,.83-1.59s.49-1.08.69-1.58a3.61,3.61,0,0,0,.28-1.12q0-.93-.9-.9a14.85,14.85,0,0,0-2,.25c-.75.15-1.42.26-2,.33s-.9-.13-.9-.61q0-5.76-.25-11.42c-.17-3.76-.25-7.57-.25-11.41a1.18,1.18,0,0,1,.07-.36.28.28,0,0,1,.29-.21,2.63,2.63,0,0,1,1.11.28l1.26.62,1.26.61a2.7,2.7,0,0,0,1.12.29l.22-.36V.81q0-.72.57-.72c.34,0,.93,0,1.77.11l2.7.25c1,.1,1.84.21,2.66.33a8.45,8.45,0,0,1,1.58.32,4.07,4.07,0,0,1,.44.18.41.41,0,0,1,.21.4A3.28,3.28,0,0,1,170.6,3a4.08,4.08,0,0,0-.46,1.91,12.13,12.13,0,0,1-.08,1.47,2.67,2.67,0,0,0,0,1,.83.83,0,0,0,.58.54,4.66,4.66,0,0,0,1.54.18h1.62c.8,0,1.61,0,2.45,0a20.63,20.63,0,0,1,2.34.18,2.94,2.94,0,0,1,1.3.36c-.1.24-.57.4-1.41.47s-1.78.11-2.84.11-2.06,0-3,0l-1.95,0a.7.7,0,0,0-.68.58,4.35,4.35,0,0,0-.18,1.3,13.88,13.88,0,0,0,.07,1.44c.05.48.07.81.07,1s-.31.53-.93.72a20.52,20.52,0,0,1-2,.51,20.57,20.57,0,0,0-2,.5c-.62.19-.93.46-.93.79a.73.73,0,0,0,.39.62,3.2,3.2,0,0,0,.94.39,8.27,8.27,0,0,0,1.08.22,6.36,6.36,0,0,0,.83.07h18.72a1.94,1.94,0,0,0,.86-.25,3,3,0,0,0,.87-.65,3.42,3.42,0,0,0,.57-.83.88.88,0,0,0,0-.86l-.5-.29h-5.4a.64.64,0,0,1-.72-.72V1q0-.72.57-.72c.29,0,.88,0,1.77.1l2.84.26c1,.09,2,.2,2.81.32s1.39.2,1.58.25l.36.18a.34.34,0,0,1,.22.33.8.8,0,0,1-.32.57c-.22.19-.38.34-.47.43l-.22.51c0,.24,0,.64-.07,1.19s-.07,1.11-.07,1.69a5.68,5.68,0,0,0,.18,1.51c.12.43.34.65.68.65h5.55a2.23,2.23,0,0,0,1.72-.79,10.63,10.63,0,0,0,1.3-1.77c.38-.65.76-1.28,1.12-1.91a2.38,2.38,0,0,1,1.18-1.15,5.21,5.21,0,0,1,1.44.9c.72.55,1.47,1.18,2.24,1.87s1.46,1.36,2.08,2,.94,1,.94,1.23l-.72.36a1.83,1.83,0,0,1-.79.21H191.81a.8.8,0,0,0-.9.72,9.23,9.23,0,0,0-.11,1.3,2.75,2.75,0,0,0,1.3,2.3,23.67,23.67,0,0,0,2.84,1.77,32.29,32.29,0,0,1,2.84,1.69,2.48,2.48,0,0,1,1.3,2.09.49.49,0,0,1-.29.39c-.19.12-.42.26-.68.4a2.25,2.25,0,0,0-.69.58,1.45,1.45,0,0,0-.28.93V34.15a1.57,1.57,0,0,1-.9,1.33,9.28,9.28,0,0,1-2.13.9,14.21,14.21,0,0,1-2.45.5,16.27,16.27,0,0,1-1.8.15,1.67,1.67,0,0,1-1.33-.4,1.71,1.71,0,0,1-.39-.83c0-.28-.1-.56-.15-.82a.45.45,0,0,0-.5-.4H172.94l-.5.22c-.24.24-.26.46-.07.65a2.8,2.8,0,0,0,.79.55,10.14,10.14,0,0,1,1,.55c.31.19.47.36.47.51s-.16.34-.47.58-.65.5-1,.76a8.39,8.39,0,0,0-1,.88,1.36,1.36,0,0,0-.47,1,.78.78,0,0,0,.18.4c.12.17.22.26.32.26h24.7l.5-.22a31.9,31.9,0,0,0,2.05-2.56c.65-.88,1.29-1.81,1.91-2.77a.63.63,0,0,1,.36-.21c.1,0,.53.21,1.3.79s1.59,1.24,2.48,2,1.71,1.47,2.45,2.19a5.78,5.78,0,0,1,1.26,1.47q-.07.19-.9.27t-1.8.06h-3.13q-13.19.44-26.43.44c-1.05,0-2.1,0-3.13-.15a13.6,13.6,0,0,0-3.06.07,4.5,4.5,0,0,0-1.62.69,13.27,13.27,0,0,0-1.65,1.29c-.56.51-1.08,1-1.59,1.55a13.23,13.23,0,0,1-1.4,1.3q-2,1.72-4.32,3.31a50.57,50.57,0,0,1-4.79,2.92,46.14,46.14,0,0,1-5.11,2.34A27.33,27.33,0,0,1,145,57.12Zm37-11a1.7,1.7,0,0,1-.36.58l-.43.43-.22.51v5.47a.39.39,0,0,0,.29.43,2.25,2.25,0,0,0,.58.07,3.25,3.25,0,0,0,1.94-.47,4.38,4.38,0,0,0,1.08-1.11,13.69,13.69,0,0,0,.83-1.44,4.72,4.72,0,0,1,1.11-1.44.59.59,0,0,1,.44-.15,3.45,3.45,0,0,1,1.11.76c.6.5,1.23,1.06,1.87,1.66s1.24,1.18,1.77,1.76.79.94.79,1.08a.39.39,0,0,1-.29.43,2.22,2.22,0,0,1-.57.07H181.51a.64.64,0,0,0-.72.72V64.1a.64.64,0,0,0,.72.72l2.63,0c1.32,0,2.71-.07,4.18-.14l4-.18a9.57,9.57,0,0,0,2.16-.22c.15-.19.43-.58.87-1.18s.88-1.22,1.36-1.84a21,21,0,0,1,1.41-1.66c.45-.47.75-.72.9-.72a4.75,4.75,0,0,1,1.33.87c.74.57,1.54,1.22,2.38,1.94s1.58,1.39,2.23,2,1,1,1,1.15a.39.39,0,0,1-.32.43,2.81,2.81,0,0,1-.62.07q-14.4,0-28.65.26t-28.66.25a2.15,2.15,0,0,1-.68-.11c-.22-.07-.33-.28-.33-.61,0-.1.09-.17.26-.22a1.34,1.34,0,0,1,.39-.07h23.47c.29,0,.51-.19.65-.58a4.93,4.93,0,0,0,.29-1.33,10.39,10.39,0,0,0,0-1.47c0-.48,0-.82,0-1V55.35c0-1.7-.05-3.39-.14-5.07-.05-.82-.11-1.62-.18-2.42a23.88,23.88,0,0,1-.11-2.41c0-.43.11-.67.32-.72a4.59,4.59,0,0,1,.83-.07c1.54,0,3.06.05,4.57.14a20.65,20.65,0,0,1,4.5.8Zm-11.88,8.36c-1.06.09-2,.15-2.74.18s-1.6.06-2.52.1l-2.55.15c-.79,0-1.47.07-2,.07h-.9q-.57-.15-.57-.54c0-.26.19-.4.57-.4h9.87a1.23,1.23,0,0,1,.46.11A.86.86,0,0,1,169.92,54.24Zm-4.25-35.93A.64.64,0,0,0,165,19V32.42a.64.64,0,0,0,.72.72h21.6a.64.64,0,0,0,.72-.72V19a.64.64,0,0,0-.72-.72Zm.94,7.2h19.73l.21.21-.21.22H166.61l-.22-.22Zm42.55,22.75a1.53,1.53,0,0,1-.29.65,7.33,7.33,0,0,0-.43.65,37.51,37.51,0,0,0-3.17,4.82c-.14.29-.29.59-.43.9s-.29.61-.43.9-.35.52-.47.54a2,2,0,0,1-.76-.11,14.62,14.62,0,0,1-3.6-1.65c-1.25-.77-2.4-1.47-3.45-2.09-.48-.29-1.21-.78-2.2-1.48s-2-1.47-3-2.34a26.67,26.67,0,0,1-2.62-2.55,3.55,3.55,0,0,1-1.12-2.06c0-.14.11-.22.32-.25l.47,0a29.73,29.73,0,0,1,5.26.46c1.73.32,3.45.68,5.18,1.08L203.62,47a46.87,46.87,0,0,0,5.18,1Z" style="fill:#231f20"/></g></g></svg>